# xmcd
#
# Track frame offsets:
#	150
#	14795
#	28130
#	41344
#	58249
#	71021
#	84279
#	96688
#	109846
#	122299
#	134042
#	144360
#	156586
#	168588
#	185414
#	209885
#
# Disc length: 2813 seconds
#
# Revision: 3
# Processed by: cddbd v1.5.2PL0 Copyright (c) Steve Scherf et al.
# Submitted via: audiograbber 1.83.01
#
DISCID=f80afb10
DTITLE=Roy Orbison - CB90205-
DYEAR=1900
DGENRE=Karaoke
TTITLE0=Roy Orbison - Pretty Woman
TTITLE1=Roy Orbison - Dream Baby
TTITLE2=Roy Orbison - Blue Angel
TTITLE3=Roy Orbison - You Got It
TTITLE4=Roy Orbison - Blue Bayou
TTITLE5=Roy Orbison - Candy Man
TTITLE6=Roy Orbison - Crying
TTITLE7=Roy Orbison - In Dreams
TTITLE8=Roy Orbison - It's Over
TTITLE9=Roy Orbison - Only the Lonely
TTITLE10=Roy Orbison - Running Scared
TTITLE11=Roy Orbison - Mean Woman Blues
TTITLE12=Roy Orbison - Goodnight
TTITLE13=Roy Orbison - Ride Away
TTITLE14=Roy Orbison - Pretty Paper
TTITLE15=data - data
EXTD=
EXTT0=
EXTT1=
EXTT2=
EXTT3=
EXTT4=
EXTT5=
EXTT6=
EXTT7=
EXTT8=
EXTT9=
EXTT10=
EXTT11=
EXTT12=
EXTT13=
EXTT14=
EXTT15=
PLAYORDER=
